<svg xmlns="http://www.w3.org/2000/svg" viewBox="0 0 260.06 260.06"><defs><style>.cls-1{fill:#f06927;}.cls-2{fill:#40424d;}</style></defs><title>BBbody</title><g id="Layer_2" data-name="Layer 2"><g id="Layer_1-2" data-name="Layer 1"><circle class="cls-1" cx="130.03" cy="130.03" r="73.12" transform="translate(-37.82 205.15) rotate(-69.11)"/><path class="cls-2" d="M176.39,8.58a130,130,0,1,0,75.1,167.81A130,130,0,0,0,176.39,8.58Zm52.1,154.13-40.89-15.61a60,60,0,0,0-32.34-71.55l15.61-40.89A103.83,103.83,0,0,1,228.48,162.71ZM112.08,144.86l-4.41,11.57a34.66,34.66,0,0,1-12.22-26.54l12.09,4.61,8.85-23.19-11.94-4.56a34.67,34.67,0,0,1,26.49-11.3l-4.26,11.16,23.19,8.85,4-10.53a34.71,34.71,0,0,1,10.74,24.78l-10.21-3.9L145.57,149l10.36,4a34.7,34.7,0,0,1-24.83,11.67l4.17-10.93ZM162.3,31.44,146.69,72.33a60,60,0,0,0-71,32.08L34.84,88.8A103.83,103.83,0,0,1,162.3,31.44ZM31.58,97.35,72.47,113A60,60,0,0,0,104,184.16L88.41,225A103.83,103.83,0,0,1,31.58,97.35Zm65.36,131,15.61-40.89a60,60,0,0,0,71.79-31.81l40.89,15.61A103.83,103.83,0,0,1,96.93,228.35Z"/></g></g></svg>