<svg xmlns="http://www.w3.org/2000/svg" viewBox="0 0 183.34 151.07"><defs><style>.cls-1{fill:#40424d;}.cls-2{fill:#f06927;}</style></defs><title>BBhead</title><g id="Layer_2" data-name="Layer 2"><g id="Layer_1-2" data-name="Layer 1"><path class="cls-1" d="M95.51,42.13a15.68,15.68,0,1,0,9.06,20.24A15.68,15.68,0,0,0,95.51,42.13ZM91.43,52.81a3.92,3.92,0,1,1,5.06-2.26A3.92,3.92,0,0,1,91.43,52.81Z"/><circle class="cls-2" cx="114.08" cy="75.06" r="6.51" transform="translate(14.69 168.7) rotate(-76.64)"/><path class="cls-1" d="M175.78,126.6c.42-1,.91-1.93,1.29-2.95C195.23,76.11,172.59,23.3,126.53,5.72S28.41,12.44,10.26,60c-.54,1.42-.93,2.85-1.39,4.27L0,87.48l4.19,1.6,26.24,10L136,139.38l26.24,10,4.39,1.68,9.32-24.41Zm-24.41-9.32L33.67,72.36c.34-1,.61-2,1-3.06,13-34,50-51.59,82.54-39.17C138,38.07,152,56.38,156,77.44L133.85,69l-9.08,23.8,30.76,11.74a68.83,68.83,0,0,1-2.85,9.8C152.28,115.35,151.8,116.3,151.37,117.29Z"/></g></g></svg>