<svg xmlns="http://www.w3.org/2000/svg" viewBox="0 0 579.99 360.35"><defs><style>.cls-1{isolation:isolate;}.cls-2{mix-blend-mode:multiply;}.cls-3{fill:#40424d;}.cls-4{fill:#f06927;}.cls-5{fill:#faa21e;}.cls-6{fill:#ffc612;}</style></defs><title>BBwSpeed</title><g class="cls-1"><g id="Layer_2" data-name="Layer 2"><g id="Layer_1-2" data-name="Layer 1"><g class="cls-2"><circle class="cls-3" cx="88.13" cy="154.77" r="5.99" transform="matrix(0.36, -0.93, 0.93, 0.36, -87.89, 181.92)"/><circle class="cls-3" cx="211.61" cy="201.9" r="5.99" transform="matrix(0.36, -0.93, 0.93, 0.36, -52.47, 327.61)"/><circle class="cls-3" cx="172.48" cy="304.43" r="5.99" transform="translate(-173.45 357.02) rotate(-69.11)"/><circle class="cls-3" cx="48.99" cy="257.3" r="5.99" transform="translate(-208.87 211.33) rotate(-69.11)"/></g><circle class="cls-4" cx="130.03" cy="230.31" r="73.12" transform="translate(-131.51 269.67) rotate(-69.11)"/><path class="cls-3" d="M176.39,108.86a130,130,0,1,0,75.1,167.81A130,130,0,0,0,176.39,108.86ZM228.48,263l-40.89-15.61a60,60,0,0,0-32.34-71.55l15.61-40.89A103.83,103.83,0,0,1,228.48,263ZM112.08,245.14l-4.41,11.57a34.66,34.66,0,0,1-12.22-26.54l12.09,4.61,8.85-23.19L104.44,207a34.67,34.67,0,0,1,26.49-11.3l-4.26,11.16,23.19,8.85,4-10.53A34.71,34.71,0,0,1,164.63,230l-10.21-3.9-8.85,23.19,10.36,4a34.7,34.7,0,0,1-24.83,11.67L135.27,254ZM162.3,131.73l-15.61,40.89a60,60,0,0,0-71,32.08L34.84,189.09A103.83,103.83,0,0,1,162.3,131.73ZM31.58,197.63l40.89,15.61A60,60,0,0,0,104,284.44L88.41,325.33A103.83,103.83,0,0,1,31.58,197.63Zm65.36,131,15.61-40.89a60,60,0,0,0,71.79-31.81l40.89,15.61A103.83,103.83,0,0,1,96.93,328.63Z"/><path class="cls-3" d="M184.73,42.13a15.68,15.68,0,1,0,9.06,20.24A15.68,15.68,0,0,0,184.73,42.13Zm-4.08,10.68a3.92,3.92,0,1,1,5.06-2.26A3.92,3.92,0,0,1,180.65,52.81Z"/><circle class="cls-4" cx="203.3" cy="75.06" r="6.51" transform="translate(83.29 255.51) rotate(-76.64)"/><path class="cls-3" d="M265,126.6c.42-1,.91-1.93,1.29-2.95C284.45,76.11,261.82,23.3,215.75,5.72S117.63,12.44,99.48,60c-.54,1.42-.93,2.85-1.39,4.27L89.22,87.48l4.19,1.6,26.24,10L225.2,139.38l26.24,10,4.39,1.68,9.32-24.41Zm-24.41-9.32L122.89,72.36c.34-1,.61-2,1-3.06,13-34,50-51.59,82.54-39.17,20.79,7.94,34.74,26.25,38.75,47.3L223.07,69,214,92.8l30.76,11.74a68.83,68.83,0,0,1-2.85,9.8C241.5,115.35,241,116.3,240.59,117.29Z"/><path class="cls-4" d="M195.23.73a86.58,86.58,0,0,1,20.52,5c45,17.17,67.51,67.9,51.65,114.56H580V.73Z"/><path class="cls-5" d="M266.3,123.66c-.39,1-.88,2-1.29,2.95l.15.06-9.32,24.41-4.39-1.68-26.24-10-3.66-1.4A130.35,130.35,0,0,1,259.72,239.5H580V120.28H267.4C267,121.4,266.72,122.54,266.3,123.66Z"/><path class="cls-6" d="M251.48,276.67A129.94,129.94,0,0,1,148.18,359H580V239.82H259.68A129.85,129.85,0,0,1,251.48,276.67Z"/><path class="cls-6" d="M259.68,239.82H580v-.33H259.72C259.71,239.6,259.69,239.71,259.68,239.82Z"/></g></g></g></svg>