<?xml version="1.0" encoding="utf-8"?>
<!-- Generator: Adobe Illustrator 20.1.0, SVG Export Plug-In . SVG Version: 6.00 Build 0)  -->
<svg version="1.1" id="Layer_1" xmlns="http://www.w3.org/2000/svg" xmlns:xlink="http://www.w3.org/1999/xlink" x="0px" y="0px"
	 viewBox="0 0 1771 360.4" style="enable-background:new 0 0 1771 360.4;" xml:space="preserve">
<style type="text/css">
	.st0{fill:#F06927;}
	.st1{fill:#FAA21E;}
	.st2{fill:#FFC612;}
</style>
<title>BBwSpeed</title>
<path class="st0" d="M195.2,0.7c7,0.8,13.9,2.5,20.5,5c45,17.2,67.5,67.9,51.6,114.6H1771V0.7H195.2z"/>
<path class="st1" d="M266.3,123.7c-0.4,1-0.9,2-1.3,2.9l0.1,0.1l-9.3,24.4l-4.4-1.7l-26.2-10l-3.7-1.4
	c26.9,26.7,40.8,63.7,38.2,101.5H1771V120.3H267.4C267,121.4,266.7,122.5,266.3,123.7z"/>
<path class="st2" d="M251.5,276.7c-16.9,44.2-56.4,75.7-103.3,82.3H1771V239.8H259.7C258.8,252.4,256,264.9,251.5,276.7z"/>
<path class="st2" d="M259.7,239.8H1771v-0.3H259.7C259.7,239.6,259.7,239.7,259.7,239.8z"/>
</svg>
